<?xml version="1.0" encoding="UTF-8" standalone="no"?>
<svg
   width="700pt"
   height="700pt"
   version="1.1"
   viewBox="0 0 700 700"
   id="svg18"
   sodipodi:docname="courses-white.svg"
   inkscape:version="1.1.1 (3bf5ae0d25, 2021-09-20)"
   xmlns:inkscape="http://www.inkscape.org/namespaces/inkscape"
   xmlns:sodipodi="http://sodipodi.sourceforge.net/DTD/sodipodi-0.dtd"
   xmlns="http://www.w3.org/2000/svg"
   xmlns:svg="http://www.w3.org/2000/svg">
  <defs
     id="defs22" />
  <sodipodi:namedview
     id="namedview20"
     pagecolor="#ffffff"
     bordercolor="#666666"
     borderopacity="1.0"
     inkscape:pageshadow="2"
     inkscape:pageopacity="0.0"
     inkscape:pagecheckerboard="0"
     inkscape:document-units="pt"
     showgrid="false"
     inkscape:zoom="0.31744044"
     inkscape:cx="527.65804"
     inkscape:cy="67.729241"
     inkscape:window-width="1920"
     inkscape:window-height="1001"
     inkscape:window-x="-9"
     inkscape:window-y="-9"
     inkscape:window-maximized="1"
     inkscape:current-layer="svg18" />
  <g
     id="g16"
     transform="matrix(1.4369145,0,0,1.5090657,-152.91867,-76.39008)"
     style="stroke-width:0.679095;fill:#ffffff;fill-opacity:1">
    <path
       d="m 551.29,227.97 c 0,4.7734 -3.8711,8.6445 -8.6445,8.6445 -4.7734,0 -8.6445,-3.8711 -8.6445,-8.6445 0,-4.7734 3.8711,-8.6445 8.6445,-8.6445 4.7734,0 8.6445,3.8711 8.6445,8.6445"
       id="path2"
       style="stroke-width:0.679095;fill:#ffffff;fill-opacity:1" />
    <path
       d="m 524.25,227.97 c 0,4.7656 -3.8594,8.6289 -8.625,8.6289 -4.7656,0 -8.6289,-3.8633 -8.6289,-8.6289 0,-4.7656 3.8633,-8.6289 8.6289,-8.6289 4.7656,0 8.625,3.8633 8.625,8.6289"
       id="path4"
       style="stroke-width:0.679095;fill:#ffffff;fill-opacity:1" />
    <path
       d="m 497.26,227.97 c 0,4.7656 -3.8633,8.6289 -8.625,8.6289 -4.7656,0 -8.6289,-3.8633 -8.6289,-8.6289 0,-4.7656 3.8633,-8.6289 8.6289,-8.6289 4.7617,0 8.625,3.8633 8.625,8.6289"
       id="path6"
       style="stroke-width:0.679095;fill:#ffffff;fill-opacity:1" />
    <path
       d="m 300.09,405.39 c 0,20.773 16.906,37.66 37.66,37.66 h 125.79 c 20.754,0 37.625,-16.906 37.625,-37.66 v -84.086 c 0,-20.789 -16.887,-37.66 -37.625,-37.66 H 337.75 c -20.773,0 -37.66,16.887 -37.66,37.66 z m 13.301,-84.086 c 0,-13.441 10.938,-24.379 24.379,-24.379 h 125.79 c 13.441,0 24.344,10.938 24.344,24.379 v 84.086 c 0,13.441 -10.902,24.379 -24.344,24.379 H 337.77 c -13.441,0 -24.379,-10.938 -24.379,-24.379 z"
       id="path8"
       style="stroke-width:0.679095;fill:#ffffff;fill-opacity:1" />
    <path
       d="m 367.78,416.73 c 1.1367,0 2.293,-0.31641 3.3086,-0.89062 l 80.953,-46.742 c 2.0469,-1.1719 3.3242,-3.3789 3.3242,-5.7578 0,-2.3789 -1.2773,-4.5859 -3.3242,-5.7578 l -80.953,-46.742 c -2.0469,-1.1719 -4.5859,-1.1719 -6.6328,0 -2.0469,1.1914 -3.3242,3.3789 -3.3242,5.7578 v 93.469 c 0,2.3984 1.2773,4.5859 3.3242,5.7734 1.0312,0.59375 2.168,0.89062 3.3242,0.89062 z m 6.6484,-88.602 60.988,35.227 -60.988,35.211 z"
       id="path10"
       style="stroke-width:0.679095;fill:#ffffff;fill-opacity:1" />
    <path
       d="M 543.23,191.55 H 392.94 l 3.6055,13.301 h 146.68 c 20.316,0 36.855,16.555 36.855,36.891 v 7.2461 l -199.75,-0.004 c -4.4609,4.2695 -10.078,8.75 -17.098,13.301 h 216.84 v 185.66 c 0,20.336 -16.539,36.891 -36.855,36.891 h -285.14 c -20.352,0 -36.906,-16.555 -36.906,-36.891 v -149.19 c -4.918,-0.42187 -9.293,-1.1211 -13.301,-1.9609 v 151.16 c 0,27.684 22.523,50.191 50.207,50.191 h 285.14 c 27.668,0 50.156,-22.504 50.156,-50.191 v -206.21 c 0,-27.688 -22.488,-50.191 -50.156,-50.191 z"
       id="path12"
       style="stroke-width:0.679095;fill:#ffffff;fill-opacity:1" />
    <path
       d="m 290.22,263.99 c 69.074,-18.516 79.906,-43.766 80.938,-46.602 0.4375,-1.2773 0.50781,-2.6602 0.14062,-3.9883 l -16.609,-61.301 49.211,-42.723 c 2.8711,-2.4492 4.0234,-6.1953 3.0977,-9.6406 -0.92578,-3.5352 -3.8867,-6.2461 -7.5078,-6.8945 l -158.8,-30.801 c -2.8008,-0.57812 -6.4414,0.4375 -8.5938,2.3086 l -122.07,106.02 c -2.8711,2.4492 -4.0586,6.1758 -3.0781,9.7461 0.96094,3.5156 3.832,6.1406 7.4531,6.8242 l 63.648,12.336 16.676,61.512 c 0.35156,1.2969 1.1016,2.4688 2.1172,3.3242 1.4688,1.2617 11.219,8.5938 36.645,8.5938 13.844,0.004 32.359,-2.1836 56.734,-8.7109 z m -165.65,-88.637 115.1,-99.977 149.68,29.016 -115.1,99.961 z m 82.301,79.43 -14.262,-52.691 80.586,15.609 c 0.40234,0.0859 1.5391,0.19141 1.9414,0.19141 0.57813,0 2.0469,-0.19141 2.5898,-0.35156 1.5586,-0.40234 2.9922,-1.1719 4.0586,-2.1523 l 61.723,-53.602 14.227,52.535 c -3.5,5.2852 -18.637,22.801 -71.016,36.82 -52.602,14.105 -74.387,6.3555 -79.848,3.6406 z"
       id="path14"
       style="stroke-width:0.679095;fill:#ffffff;fill-opacity:1" />
  </g>
</svg>
